<svg width="54" height="54" viewBox="0 0 54 54" fill="none" xmlns="http://www.w3.org/2000/svg">
<g clip-path="url(#clip0_207_134)">
<mask id="mask0_207_134" style="mask-type:luminance" maskUnits="userSpaceOnUse" x="0" y="0" width="54" height="54">
<path d="M 0 0 H 54 V 54 H 0 V 0 Z" fill="white"/>
</mask>
<g mask="url(#mask0_207_134)">
<path fill-rule="evenodd" clip-rule="evenodd" d="M 27 0 C 12.1 0 0 12.1 0 27 C 0 38.9 7.7 49 18.5 52.6 C 19.8 52.9 20.3 52 20.3 51.3 C 20.3 50.7 20.3 48.6 20.3 46.3 C 13.5 47.6 11.7 44.7 11.2 43.1 C 10.9 42.4 9.6 40 8.4 39.3 C 7.5 38.8 6.1 37.6 8.4 37.5 C 10.5 37.5 12 39.5 12.6 40.3 C 15 44.4 18.9 43.2 20.4 42.5 C 20.7 40.8 21.4 39.6 22.1 38.9 C 16.1 38.2 9.9 35.9 9.9 25.6 C 9.9 22.6 10.9 20.2 12.6 18.3 C 12.4 17.7 11.4 14.9 12.9 11.2 C 12.9 11.2 15.2 10.5 20.3 13.9 C 22.5 13.3 24.8 13 27.1 13 C 29.4 13 31.7 13.3 33.8 13.9 C 39 10.4 41.2 11.2 41.2 11.2 C 42.7 14.9 41.8 17.7 41.5 18.3 C 43.2 20.2 44.3 22.6 44.3 25.6 C 44.3 35.9 38 38.2 32 38.9 C 32.9 39.8 33.8 41.4 33.8 43.9 C 33.8 47.5 33.8 50.4 33.8 51.3 C 33.8 52 34.3 52.9 35.6 52.6 C 41 50.8 45.6 47.4 48.9 42.8 C 52.2 38.2 54 32.7 54 27 C 54 12.1 41.9 0 27 0 Z" fill="white"/>
</g>
</g>
<defs>
<clipPath id="clip0_207_134">
<rect width="54" height="54" fill="white"/>
</clipPath>
</defs>
</svg>
