<svg id="Layer_1" data-name="Layer 1" xmlns="http://www.w3.org/2000/svg" xmlns:xlink="http://www.w3.org/1999/xlink" viewBox="0 0 227.42 227.42"><defs><style>.cls-1,.cls-3,.cls-4{fill:none;}.cls-2{fill:url(#linear-gradient);}.cls-3,.cls-4{stroke-miterlimit:10;}.cls-3{stroke-width:0.5px;stroke:url(#linear-gradient-2);}.cls-4{stroke-width:5px;stroke:url(#linear-gradient-3);}</style><linearGradient id="linear-gradient" x1="327.97" y1="315.99" x2="500.23" y2="315.99" gradientUnits="userSpaceOnUse"><stop offset="0.2" stop-color="#00152a"/><stop offset="1" stop-color="#b300bf"/></linearGradient><linearGradient id="linear-gradient-2" x1="325.97" y1="316.94" x2="500.3" y2="316.94" xlink:href="#linear-gradient"/><linearGradient id="linear-gradient-3" x1="0" y1="113.71" x2="227.42" y2="113.71" xlink:href="#linear-gradient"/></defs><path class="cls-1" d="M 150 194" transform="translate(-320.3,-202.3)"/><path class="cls-2" d="M 402.3 230.3 c 8.3 60.1 19.4 60.1 37.2 0 c -7.8 60.1 0.3 68.2 60.7 60.7 h 0 c -60.4 17.5 -63.6 20.6 -10.6 10.6 c -54.5 11.6 -54.5 14.1 0 18.5 c -53 -2.9 -50.8 -0.7 7.3 7.3 c -58.1 -8 -58.1 -0.1 0 26.2 c -58.1 -18.5 -64.5 -12 -48 48 c -24.4 -60 -32.1 -60 -25.7 0 c -22.1 -60 -34.8 -72.8 -95.2 -95.2 c 60.4 6.7 60.4 -15.2 0 -73.4 h 0 c 65.7 57.8 70.3 62 33 30.5 c 37.3 36.8 37.3 50.9 0 47.1 c 37.3 14.1 45.6 22.4 62.4 62.4 c -6.5 -39.9 -4.8 -39.9 5.5 0 c -3.9 -39.9 1.3 -45.1 39 -38.7 h 0 c -37.7 -12.8 -40.8 -15.8 -10.2 -10.2 c -32.4 -7.4 -32.4 -10.3 0 -21.8 c -30.6 9.7 -26.5 5.7 13.4 -13.4 h 0 c -40 14.1 -44 10.1 -30 -30.2 c -18.9 40.3 -21.4 40.3 -8.4 -0.1 c -13 40.4 -12.4 55.7 2 51.1 c -14.4 12.3 -16.3 18.5 -32.3 46.9 C 410.6 328.1 410.6 290.4 402.3 230.3 Z" transform="translate(-320.3,-202.3)"/><path class="cls-3" d="M 402.3 230.3 c 8.3 60.1 19.4 60.1 37.2 0 c -7.8 60.1 0.3 68.2 60.7 60.7 h 0 c -60.4 17.5 -63.6 20.6 -10.6 10.6 c -54.5 11.6 -54.5 14.1 0 18.5 c -53 -2.9 -50.8 -0.7 7.3 7.3 c -58.1 -8 -58.1 -0.1 0 26.2 c -58.1 -18.5 -64.5 -12 -48 48 c -24.4 -60 -32.1 -60 -25.7 0 c -22.1 -60 -34.8 -72.8 -95.2 -95.2 c 60.4 6.7 60.4 -15.2 0 -73.4 h 0 c 65.7 57.8 70.3 62 33 30.5 c 37.3 36.8 37.3 50.9 0 47.1 c 37.3 14.1 45.6 22.4 62.4 62.4 c -6.5 -39.9 -4.8 -39.9 5.5 0 c -3.9 -39.9 1.3 -45.1 39 -38.7 h 0 c -37.7 -12.8 -40.8 -15.8 -10.2 -10.2 c -32.4 -7.4 -32.4 -10.3 0 -21.8 c -30.6 9.7 -26.5 5.7 13.4 -13.4 h 0 c -40 14.1 -44 10.1 -30 -30.2 c -18.9 40.3 -21.4 40.3 -8.4 -0.1 c -13 40.4 -12.4 55.7 2 51.1 c -14.4 12.3 -16.3 18.5 -32.3 46.9 C 410.6 328.1 410.6 290.4 402.3 230.3 Z" transform="translate(-320.3,-202.3)"/><circle class="cls-4" cx="113.7" cy="113.7" r="102.8"/></svg>