<svg width="59" height="59" viewBox="0 0 59 59" fill="none" xmlns="http://www.w3.org/2000/svg">
<g clip-path="url(#clip0_207_154)">
<path d="M19.4334 14.5752C23.2989 14.5752 27.0061 16.1108 29.7395 18.8441C32.4728 21.5775 34.0084 25.2847 34.0084 29.1502C34.0084 33.0157 32.4728 36.7229 29.7395 39.4563C27.0061 42.1896 23.2989 43.7252 19.4334 43.7252C15.5679 43.7252 11.8607 42.1896 9.12732 39.4563C6.39397 36.7229 4.8584 33.0157 4.8584 29.1502C4.8584 25.2847 6.39397 21.5775 9.12732 18.8441C11.8607 16.1108 15.5679 14.5752 19.4334 14.5752ZM41.2959 17.0044C44.9397 17.0044 47.3688 22.4433 47.3688 29.1502C47.3688 35.8571 44.9397 41.296 41.2959 41.296C37.6522 41.296 35.223 35.8571 35.223 29.1502C35.223 22.4433 37.6522 17.0044 41.2959 17.0044ZM51.0126 18.2189C51.9357 18.2189 52.7421 20.2279 53.1502 23.6749L53.2644 24.751L53.3106 25.3218L53.3834 26.5218L53.4077 27.151L53.4369 28.4652L53.4417 29.1502L53.4369 29.8352L53.4077 31.1494L53.3834 31.781L53.3106 32.9786L53.262 33.5494L53.1527 34.6255C52.7421 38.075 51.9381 40.0814 51.0126 40.0814C50.0895 40.0814 49.283 38.0725 48.8749 34.6255L48.7607 33.5494C48.744 33.3592 48.7286 33.169 48.7146 32.9786L48.6417 31.7786C48.6323 31.5689 48.6242 31.3592 48.6174 31.1494L48.5883 29.8352V28.4652L48.6174 27.151L48.6417 26.5194L48.7146 25.3218L48.7632 24.751L48.8725 23.6749C49.283 20.2254 50.0871 18.2189 51.0126 18.2189Z" fill="white"/>
</g>
<defs>
<clipPath id="clip0_207_154">
<rect width="58.3" height="58.3" fill="white"/>
</clipPath>
</defs>
</svg>
