<svg id="Layer_1" data-name="Layer 1" xmlns="http://www.w3.org/2000/svg" xmlns:xlink="http://www.w3.org/1999/xlink" viewBox="0 0 227.42 227.42"><defs><style>.cls-1,.cls-3,.cls-4{fill:none;}.cls-2{fill:url(#linear-gradient);}.cls-3,.cls-4{stroke-miterlimit:10;}.cls-3{stroke-width:0.5px;stroke:url(#linear-gradient-2);}.cls-4{stroke-width:5px;stroke:url(#linear-gradient-3);}</style><linearGradient id="linear-gradient" x1="327.97" y1="315.99" x2="500.23" y2="315.99" gradientUnits="userSpaceOnUse"><stop offset="0.24" stop-color="#00152a"/><stop offset="1" stop-color="#b300bf"/></linearGradient><linearGradient id="linear-gradient-2" x1="325.97" y1="316.94" x2="500.3" y2="316.94" xlink:href="#linear-gradient"/><linearGradient id="linear-gradient-3" x1="0" y1="113.71" x2="227.42" y2="113.71" xlink:href="#linear-gradient"/></defs><path class="cls-1" d="M150,194" transform="translate(-320.32 -202.28)"/><path class="cls-2" d="M402.29,230.35c8.28,60.06,19.4,60.06,37.22,0-7.81,60.06.31,68.18,60.72,60.72h0c-60.41,17.48-63.56,20.63-10.56,10.56-54.52,11.59-54.52,14.07,0,18.48-53-2.89-50.83-.72,7.26,7.26-58.09-8-58.09-.14,0,26.24-58.09-18.46-64.51-12-48,48-24.41-60.05-32.1-60.05-25.74,0-22.07-60.05-34.8-72.78-95.2-95.2,60.4,6.71,60.4-15.22,0-73.43h0c65.71,57.78,70.26,62,33,30.47,37.26,36.84,37.26,50.9,0,47.08,37.26,14.11,45.6,22.45,62.37,62.37-6.48-39.92-4.83-39.91,5.53,0-3.94-39.9,1.29-45.09,39-38.73h0c-37.73-12.79-40.78-15.84-10.23-10.23-32.35-7.41-32.35-10.32,0-21.78-30.55,9.66-26.53,5.65,13.44-13.45h0c-40,14.13-44,10.1-30-30.23-18.92,40.3-21.44,40.26-8.43-.13-13,40.39-12.42,55.67,2,51.15-14.4,12.25-16.33,18.51-32.34,46.86C410.57,328.06,410.57,290.41,402.29,230.35Z" transform="translate(-320.32 -202.28)"/><path class="cls-3" d="M402.29,230.35c8.28,60.06,19.4,60.06,37.22,0-7.81,60.06.31,68.18,60.72,60.72h0c-60.41,17.48-63.56,20.63-10.56,10.56-54.52,11.59-54.52,14.07,0,18.48-53-2.89-50.83-.72,7.26,7.26-58.09-8-58.09-.14,0,26.24-58.09-18.46-64.51-12-48,48-24.41-60.05-32.1-60.05-25.74,0-22.07-60.05-34.8-72.78-95.2-95.2,60.4,6.71,60.4-15.22,0-73.43h0c65.71,57.78,70.26,62,33,30.47,37.26,36.84,37.26,50.9,0,47.08,37.26,14.11,45.6,22.45,62.37,62.37-6.48-39.92-4.83-39.91,5.53,0-3.94-39.9,1.29-45.09,39-38.73h0c-37.73-12.79-40.78-15.84-10.23-10.23-32.35-7.41-32.35-10.32,0-21.78-30.55,9.66-26.53,5.65,13.44-13.45h0c-40,14.13-44,10.1-30-30.23-18.92,40.3-21.44,40.26-8.43-.13-13,40.39-12.42,55.67,2,51.15-14.4,12.25-16.33,18.51-32.34,46.86C410.57,328.06,410.57,290.41,402.29,230.35Z" transform="translate(-320.32 -202.28)"/><circle class="cls-4" cx="113.71" cy="113.71" r="102.79"/></svg>