<svg width="42" height="42" viewBox="0 0 42 42" fill="none" xmlns="http://www.w3.org/2000/svg">
<path fill-rule="evenodd" clip-rule="evenodd" d="M5.19387e-07 3.50891C5.19387e-07 2.57829 0.369688 1.68579 1.02774 1.02774C1.68578 0.369692 2.57829 4.67787e-06 3.50891 4.67787e-06H38.4873C38.9485 -0.000748557 39.4053 0.0894702 39.8315 0.265496C40.2578 0.441521 40.6452 0.699896 40.9715 1.02583C41.2978 1.35176 41.5566 1.73885 41.733 2.16493C41.9095 2.59102 42.0003 3.04773 42 3.50891V38.4873C42.0005 38.9486 41.91 39.4054 41.7338 39.8317C41.5576 40.258 41.299 40.6453 40.9729 40.9716C40.6469 41.2979 40.2596 41.5566 39.8335 41.7331C39.4073 41.9096 38.9505 42.0003 38.4892 42H3.50891C3.04795 42 2.59151 41.9092 2.16567 41.7327C1.73982 41.5563 1.35292 41.2976 1.02706 40.9716C0.701204 40.6456 0.442779 40.2585 0.266552 39.8326C0.0903253 39.4066 -0.000250273 38.9501 5.19387e-07 38.4892V3.50891ZM16.6244 16.0135H22.3115V18.8695C23.1325 17.2276 25.2325 15.75 28.3882 15.75C34.4381 15.75 35.8718 19.0203 35.8718 25.0206V36.1353H29.7494V26.3875C29.7494 22.9702 28.9285 21.042 26.8437 21.042C23.9515 21.042 22.7487 23.121 22.7487 26.3875V36.1353H16.6244V16.0135ZM6.12436 35.8737H12.2487V15.75H6.12436V35.8737ZM13.125 9.18655C13.1365 9.71092 13.0432 10.2323 12.8505 10.7202C12.6579 11.208 12.3697 11.6524 12.0029 12.0273C11.6361 12.4023 11.1982 12.7002 10.7147 12.9036C10.2312 13.1069 9.712 13.2117 9.1875 13.2117C8.663 13.2117 8.14378 13.1069 7.66031 12.9036C7.17685 12.7002 6.73888 12.4023 6.3721 12.0273C6.00533 11.6524 5.71714 11.208 5.52445 10.7202C5.33176 10.2323 5.23845 9.71092 5.25 9.18655C5.27267 8.15727 5.69746 7.17779 6.43342 6.45786C7.16937 5.73793 8.15797 5.3348 9.1875 5.3348C10.217 5.3348 11.2056 5.73793 11.9416 6.45786C12.6775 7.17779 13.1023 8.15727 13.125 9.18655Z" fill="white"/>
</svg>
