<svg width="51" height="51" viewBox="0 0 51 51" fill="none" xmlns="http://www.w3.org/2000/svg">
<path d="M25.5 6.375H17C11.132 6.375 6.375 11.132 6.375 17V34C6.375 39.868 11.132 44.625 17 44.625H34C39.868 44.625 44.625 39.868 44.625 34V17C44.625 11.132 39.868 6.375 34 6.375H25.5Z" stroke="white" stroke-width="4.25" stroke-linecap="round" stroke-linejoin="round"/>
<path d="M25.5 17C30.1944 17 34 20.8056 34 25.5C34 30.1944 30.1944 34 25.5 34C20.8056 34 17 30.1943 17 25.5C17 20.8056 20.8056 17 25.5 17Z" stroke="white" stroke-width="4.25" stroke-linecap="round" stroke-linejoin="round"/>
<path d="M36.125 18.0625C37.8854 18.0625 39.3125 16.6354 39.3125 14.875C39.3125 13.1146 37.8854 11.6875 36.125 11.6875C34.3646 11.6875 32.9375 13.1146 32.9375 14.875C32.9375 16.6354 34.3646 18.0625 36.125 18.0625Z" fill="white"/>
</svg>
